<?xml version="1.0" encoding="UTF-8"?><svg id="a" xmlns="http://www.w3.org/2000/svg" viewBox="0 0 472.23 182.09"><defs><style>.b{fill:#fff;}</style></defs><g><path class="b" d="M298.92,71.64c.98-1.03,1.9-2.12,2.94-3.09,2.99-2.8,6.42-4.41,10.65-4.3,4.44,.11,7.72,2.08,10.09,5.71,2.58,3.96,3.04,8.41,2.88,12.99-.21,5.89-1.97,11.3-4.98,16.33-.45,.75-.94,1.46-1.55,2.4,.62,.23,1.11,.5,1.62,.57,3.35,.45,6.4-.2,8.95-2.57,1.06-.99,2.16-1.95,3.17-3,.32-.33,.54-.89,.57-1.36,.46-8.1,3.32-15.26,8.57-21.42,4.19-4.91,9.41-8.29,15.84-9.47,1.66-.3,3.42-.17,5.12-.09,1.37,.07,2.15,1.04,2.38,2.31,.24,1.32,.88,1.59,2.17,1.43,1.59-.19,3.22-.11,4.82-.03,2.01,.1,3.41,1.45,3.19,3.44-.43,3.96-1.09,7.89-1.69,11.83-.74,4.82-1.55,9.62-2.25,14.44-.24,1.66-.02,3.41,1.59,4.25,1.59,.83,3.29,.3,4.63-.85,1.57-1.35,3.07-2.79,4.53-4.26,.31-.31,.47-.93,.44-1.39-.63-8.4,1.12-16.22,6.58-22.74,5.15-6.14,11.73-9.55,20.05-8.04,4.84,.88,8.48,5.08,8.82,10.01,.25,3.53-.13,6.95-2.33,9.93-1.42,1.91-3.93,2.84-6.21,2.24-2.21-.57-3.13-2.32-2.61-5.03,.22-1.12,.53-2.22,.74-3.34,.56-3.01-1.09-4.49-4.06-3.65-2.08,.59-3.55,2.03-4.56,3.79-3.34,5.82-4.16,12.03-2.11,18.45,1.18,3.67,4.32,5.61,8.19,5.84,5.48,.33,10-1.79,14.13-5.1,.48-.39,.99-.75,1.47-1.15,1.85-1.53,3.12-3.05,3.11-5.91-.03-6.2,.61-12.41,1.02-18.61,.59-8.78,2.25-17.38,4.44-25.88,2.13-8.26,5-16.28,9.74-23.46,1.91-2.91,4.25-5.48,7.49-7.08,6.96-3.45,13.63-.58,15.84,6.88,1.32,4.44,1.12,8.93,.32,13.41-1.76,9.74-6.53,18.1-12.44,25.83-4.03,5.27-8.4,10.27-12.61,15.4-.26,.32-.67,.66-.69,1.01-.2,3.47-.34,6.95-.21,10.45,1.23-2.6,2.4-5.22,3.69-7.79,3.15-6.25,7.41-11.52,13.68-14.89,4.1-2.2,8.32-2.59,12.43-.02,3.46,2.16,5.2,5.43,5.44,9.46,.49,8.12-2.98,14.21-9.68,18.61-.35,.23-.73,.41-1.05,.67-.73,.59-2.13,1.41-2.03,1.78,.37,1.28,1,2.81,2.03,3.49,1.64,1.07,3.68,1.53,5.55,2.25,1.34,.52,2.87,.8,3.95,1.65,2.04,1.61,1.96,4.81,.07,6.99-2.19,2.54-5.17,3.3-8.3,3.13-4.84-.26-9.27-1.71-12.6-5.55-3.34-3.85-4.64-8.34-3.69-13.28,.25-1.31,1.64-2.61,2.83-3.48,1.61-1.18,3.59-1.85,5.31-2.9,3.1-1.9,4.56-4.69,4.23-8.39-.23-2.61-1.95-3.68-4.32-2.63-3.53,1.56-5.52,4.66-7.45,7.71-4.33,6.82-6.81,14.4-8.81,22.17-.66,2.59-1.52,5.17-4.55,5.99-4.45,1.2-7.62-.95-8.52-5.73-.08-.44-.16-.87-.3-1.58-.62,.42-1.04,.68-1.44,.97-5.5,4.04-11.68,6.51-18.47,6.65-6.95,.14-13.4-1.62-17.92-7.57-.06-.07-.17-.1-.44-.25-1.02,.9-2.07,1.88-3.18,2.79-2.41,1.99-4.94,3.78-8.03,4.61-4.61,1.23-8.26-.33-11.17-3.88-1-1.22-1.74-2.66-2.67-4.11-1,1.14-1.95,2.27-2.96,3.37-4.37,4.77-9.66,6.21-15.8,4.15-2.57-.86-4.6-2.56-6.11-4.84-.25-.38-.51-.75-.77-1.13-1.72,1.27-3.26,2.57-4.95,3.63-4.08,2.57-8.52,3.72-13.35,3.03-2.32-.33-4.38-1.29-6.08-2.92-.68-.65-1.24-.72-2.05-.24-3.17,1.87-6.56,3.05-10.27,3.28-.41,.03-1.06,.67-1.12,1.09-.89,6.31-1.45,12.68-2.57,18.95-1.36,7.6-3.15,15.13-7.48,21.74-3.65,5.57-10.47,7.55-15.89,4.62-2.66-1.44-3.9-3.92-4.69-6.69-1.44-5.06-1.15-10.2-.37-15.29,2.01-13.09,7.04-25.11,13.24-36.69,1.47-2.74,3.1-5.4,4.47-8.19,.59-1.2,1.03-2.62,1.03-3.94,0-6.28-.16-12.56-.27-18.83-.04-2.44,.89-4.52,3.1-5.48,1.89-.83,4.04-1.34,6.1-1.46,2.52-.15,3.76,1.31,3.89,3.86,.06,1.27,.01,2.54,.01,3.81l.48,.2Zm63.76,2.54l-.49-.47c-1.69,.58-3.5,.94-5.04,1.78-8.01,4.35-11.56,15.56-10.6,23.53,.23,1.9,1.09,3.53,3.21,4.18,2.22,.69,4.01-.08,5.25-1.73,1.29-1.71,2.63-3.61,3.14-5.63,1.48-5.87,2.57-11.84,3.79-17.78,.27-1.29,.49-2.59,.74-3.89Zm-64.23,29.94c1.37-.64,2.43-1.04,3.4-1.6,3.94-2.28,6.43-5.8,8.23-9.85,1.76-3.95,2.56-8.11,2.32-12.42-.11-2.06-.61-4.18-2.74-5.06-2.16-.89-4.24-.23-5.85,1.41-1.56,1.58-3.04,3.26-4.38,5.03-.57,.76-.93,1.87-.95,2.82-.09,4.93-.04,9.85-.04,14.78,0,1.49,0,2.99,0,4.89Zm139.52-39.42c.44-.22,.55-.24,.61-.31,5.91-7.45,10.81-15.45,13.41-24.7,1.18-4.22,1.46-8.48,.42-12.74-.2-.83-1.18-1.87-1.96-2.03-.67-.14-1.95,.67-2.29,1.38-1.63,3.39-3.46,6.78-4.41,10.39-1.94,7.36-3.38,14.84-4.96,22.29-.38,1.8-.53,3.65-.82,5.72Zm-152.52,44.18l-.54-.03c-1.45,3.93-2.95,7.84-4.35,11.79-2.6,7.3-4.53,14.78-5.05,22.52-.16,2.33,.54,4.8,1.23,7.08,.46,1.51,1.94,1.6,2.89,.29,.68-.94,1.28-2.07,1.51-3.2,.97-4.82,1.94-9.64,2.61-14.51,.62-4.51,.9-9.06,1.22-13.6,.25-3.44,.33-6.89,.48-10.34Z"/><path class="b" d="M225.35,98.7c1.57,3.27,4.21,4.51,7.33,4.8,4.04,.37,7.59-.81,10.38-3.89,1.46-1.61,2.96-3.2,4.37-4.85,.91-1.07,1.95-1.79,3.37-1.41,1.35,.36,1.94,1.45,2.18,2.76,.53,2.94,.03,5.71-1.58,8.2-3.75,5.79-9.19,8.78-15.98,9.54-5.19,.58-10.21,.07-14.72-2.65-1.95-1.18-3.58-2.94-5.22-4.57-.67-.66-1.01-.77-1.76-.17-5.51,4.49-11.82,7.25-18.91,7.55-6.77,.29-13.12-1.21-17.82-6.73-.3-.35-.63-.67-1.07-1.13-1.06,.89-2.07,1.74-3.09,2.6-2.85,2.4-5.97,4.28-9.7,5.01-6.93,1.35-12.34-1.98-14.32-8.74-1.48-5.04-1.61-10.15-.73-15.25,1.11-6.48,2.48-12.92,3.82-19.35,1.24-5.94,5.86-6.91,10.47-5.59,1.86,.53,2.6,1.39,2.38,3.3-.43,3.7-1.05,7.38-1.67,11.06-.86,5.11-1.89,10.19-2.63,15.31-.24,1.65,.05,3.42,.34,5.09,.51,2.96,3.07,3.59,5.2,2.24,2.15-1.36,3.92-3.34,5.77-5.13,.32-.31,.33-1.05,.3-1.58-.55-10.62,2.34-19.88,11.1-26.51,4.61-3.49,9.88-5.22,15.79-3.77,4.68,1.15,8,4.78,8.47,9.59,.32,3.34,.16,6.64-1.73,9.62-1.27,2.01-2.99,3.09-5.41,3.04-3.09-.08-4.64-2.06-3.94-5.08,.28-1.21,.61-2.42,.8-3.64,.42-2.85-1.27-4.29-4.01-3.45-3.13,.96-4.82,3.46-5.91,6.23-2.01,5.07-2.67,10.33-.99,15.68,1.16,3.68,4.28,5.9,8.11,6.19,6.55,.49,11.58-2.61,16.2-6.66,.48-.42,.58-1.51,.53-2.27-.5-7.06,.93-13.63,4.98-19.51,3.16-4.59,7.29-7.98,12.76-9.37,2.75-.7,5.55-1.21,8.45-.62,7.21,1.46,11.02,5.91,10.97,13.27-.06,7.71-4.09,13.04-10.75,16.36-3.27,1.62-6.85,2.61-10.3,3.88-.53,.19-1.06,.38-1.81,.64Zm-1.89-8.26c5-1.27,9.23-2.79,12.13-6.7,1.19-1.61,1.65-3.46,1.45-5.44-.22-2.19-1.97-3.91-4.1-3.62-1.47,.2-3.09,.75-4.22,1.67-2.44,1.99-3.75,4.81-4.37,7.88-.39,1.94-.56,3.92-.88,6.21Z"/><path class="b" d="M152.62,49.87c.07-4.22,3.43-8.12,7.34-8.57,2.07-.24,4.32-.35,6.29,.2,5.57,1.56,7.12,8.64,3.01,12.9-3.28,3.4-9.98,4.05-13.81,1.31-2.13-1.53-2.71-3.81-2.83-5.83Z"/></g><path class="b" d="M0,94.6c.21-21.29,3.09-38.38,10.23-54.59,4.31-9.79,9.93-18.72,17.69-26.16C35.54,6.54,44.37,1.53,55.02,.29c9.92-1.15,19.1,1.13,27.55,6.39,7.96,4.96,14.2,11.66,19.31,19.44,8.8,13.39,13.68,28.23,16.13,43.97,1.42,9.08,1.87,18.22,1.43,27.37-.93,19.22-5.27,37.55-15.02,54.33-5.34,9.18-12,17.25-21.07,22.98-13.96,8.82-28.45,9.79-43.23,2.22-10.13-5.19-17.49-13.38-23.47-22.88-7.93-12.6-12.58-26.44-14.77-41.08-1.09-7.3-1.52-14.71-1.89-18.43Zm11.06-1.23c.21,2.68,.48,7.81,1.03,12.92,1.34,12.49,4.64,24.43,10.36,35.65,4.25,8.33,9.54,15.88,17.08,21.6,8.83,6.71,18.56,9.36,29.44,5.95,8.64-2.7,15.17-8.37,20.55-15.38,11.61-15.15,16.69-32.71,18.5-51.41,.85-8.78,.7-17.55-.29-26.32-1.36-12-4.3-23.57-9.56-34.47-4.4-9.13-10.06-17.32-18.17-23.63-12.02-9.35-26.89-9.65-39.21-.76-8.63,6.22-14.5,14.64-19.08,24.04-7.57,15.57-10.41,32.18-10.63,51.82Z"/><path class="b" d="M59.84,90.58c6.02,0,12.04,0,18.06,0,4.5,0,6.4,2.3,5.58,6.69-2.81,15.06-5.63,30.12-8.45,45.18-2.16,11.53-14.12,16.85-23.9,10.56-3.53-2.27-5.7-5.64-6.47-9.77-2.88-15.41-5.7-30.84-8.52-46.26-.74-4.03,1.24-6.37,5.34-6.39,6.12-.02,12.24,0,18.36,0Z"/><path class="b" d="M59.94,57.29c-9.17,0-16.31-7.18-16.48-16.24-.16-8.46,6.97-16.49,16.43-16.53,8.86-.04,16.49,7.56,16.37,16.48-.13,9.38-7.71,16.37-16.31,16.3Z"/><path class="b" d="M59.78,86.57c-6.12,0-12.24,0-18.36,0-3.68,0-4.89-1.5-4.08-5.02,2.5-10.94,11.96-18.37,23.18-18.18,10.54,.18,20.16,8.39,21.95,18.73,.51,2.94-.71,4.45-3.7,4.46-6.33,.02-12.65,0-18.98,0Z"/></svg>