<?xml version="1.0" encoding="utf-8"?>
<!-- Generator: Adobe Illustrator 26.1.0, SVG Export Plug-In . SVG Version: 6.00 Build 0)  -->
<svg version="1.1" id="Layer_1" xmlns="http://www.w3.org/2000/svg" xmlns:xlink="http://www.w3.org/1999/xlink" x="0px" y="0px"
	 viewBox="0 0 708.7 708.7" style="enable-background:new 0 0 708.7 708.7;" xml:space="preserve">
<style type="text/css">
	.st0{fill:#FFFFFF;}
	.st1{fill:#4B368C;}
</style>
<rect class="st0" width="708.7" height="708.7"/>
<g>
	<path class="st1" d="M172.9,365.1c0.6-64.6,9.4-116.5,31-165.7c13.1-29.7,30.1-56.8,53.7-79.4c23.1-22.2,49.9-37.4,82.2-41.1
		c30.1-3.5,58,3.4,83.6,19.4c24.2,15.1,43.1,35.4,58.6,59C508.7,198,523.6,243,531,290.8c4.3,27.6,5.7,55.3,4.3,83.1
		c-2.8,58.3-16,113.9-45.6,164.9c-16.2,27.9-36.4,52.3-63.9,69.7c-42.4,26.8-86.3,29.7-131.2,6.7c-30.7-15.7-53.1-40.6-71.2-69.4
		c-24.1-38.2-38.2-80.2-44.8-124.7C175.3,398.9,174,376.4,172.9,365.1L172.9,365.1z M206.4,361.4c0.6,8.1,1.5,23.7,3.1,39.2
		c4.1,37.9,14.1,74.1,31.4,108.2c12.9,25.3,28.9,48.2,51.8,65.5c26.8,20.4,56.3,28.4,89.3,18.1c26.2-8.2,46-25.4,62.4-46.7
		c35.2-46,50.6-99.3,56.1-156c2.6-26.6,2.1-53.3-0.9-79.9c-4.1-36.4-13-71.5-29-104.6c-13.4-27.7-30.5-52.6-55.1-71.7
		c-36.5-28.4-81.6-29.3-119-2.3c-26.2,18.9-44,44.4-57.9,73C215.8,251.4,207.2,301.8,206.4,361.4L206.4,361.4z"/>
	<path class="st1" d="M354.4,352.9c18.3,0,36.5,0,54.8,0c13.7,0,19.4,7,16.9,20.3c-8.5,45.7-17.1,91.4-25.6,137.1
		c-6.6,35-42.8,51.1-72.5,32c-10.7-6.9-17.3-17.1-19.6-29.6c-8.7-46.8-17.3-93.6-25.9-140.4c-2.2-12.2,3.8-19.3,16.2-19.4
		C317.2,352.9,335.8,353,354.4,352.9L354.4,352.9z"/>
	<path class="st1" d="M354.6,251.9c-27.8,0-49.5-21.8-50-49.3c-0.5-25.7,21.2-50,49.9-50.2c26.9-0.1,50,22.9,49.7,50
		C403.7,230.9,380.7,252.2,354.6,251.9L354.6,251.9z"/>
	<path class="st1" d="M354.1,340.8c-18.6,0-37.1,0-55.7,0c-11.2,0-14.8-4.6-12.4-15.2c7.6-33.2,36.3-55.7,70.3-55.2
		c32,0.5,61.2,25.5,66.6,56.8c1.5,8.9-2.2,13.5-11.2,13.5C392.6,340.8,373.4,340.7,354.1,340.8L354.1,340.8z"/>
</g>
</svg>
